<svg xmlns="http://www.w3.org/2000/svg" viewBox="-8 -8 218 52" width="1090" height="260" fill="#3D84A8" role="img" aria-labelledby="optiadvance-title optiadvance-desc">
  <title id="optiadvance-title">OptiAdvance</title>
  <desc id="optiadvance-desc">Blue OptiAdvance wordmark with a winged A symbol, on a transparent background.</desc>
  <path transform="translate(-0.030731 -8.341462) scale(1.097561)" d="M1.6 23.16 c1.96 -11.16 3 -15.56 9 -15.56 s5.44 4.4 3.48 15.56 c-2.24 12.8 -3.28 17.24 -9.28 17.24 s-5.44 -4.44 -3.2 -17.24 z M5.52 36.4 c2.24 0 2.52 -1.68 4.56 -13.24 c1.84 -10.4 2.2 -12.36 -0.04 -12.36 s-2.6 1.96 -4.44 12.36 c-2.04 11.56 -2.32 13.24 -0.08 13.24 z M14.72 40 l5.64 -32 l6.48 0 c4.12 0 4.76 2.52 4 8.56 l-0.2 1.28 c-1.4 6.04 -2.92 8.56 -7.04 8.56 l-2.48 0 l-2.4 13.6 l-4 0 z M21.68 23.2 l2.48 0 c1.2 0 1.8 -1 2.76 -5.36 l0.2 -1.28 c0.6 -4.36 0.36 -5.36 -0.84 -5.36 l-2.48 0 z M31.92 40 l5 -28.4 l-4 0 l0.64 -3.6 l12 0 l-0.64 3.6 l-4 0 l-5 28.4 l-4 0 z M42.32 40 l5.64 -32 l4 0 l-5.64 32 l-4 0 z"/>
  <path transform="translate(39.330350 -21.860578) scale(0.228101)" d="M176.88 140.38a.21.2 53.8 0 0 .06-.4q-4.78-1.5-7.76-1.9-22.85-3.12-34.36-4.96c-8.48-1.35-16.99-3.05-24.29-8.41q-13.95-10.23-10.44-27.85a.34.33 40.2 0 1 .64-.05c3.51 9.26 15.28 13.12 24.27 14.53 16.82 2.63 28.18 3.18 50.75 4.36q14.35.75 27.48 2.91a1.12 1.1-59.6 0 0 .88-.24c12.72-10.37 27.97-18.63 43.81-22.52a.42.42 0 0 1 .52.45l-14.16 123.65a6.8 6.75 68.1 0 1-1.48 3.5q-8.33 10.22-22.64 11.76a.54.53-90 0 1-.58-.59l4.15-36.24a.47.46-86.7 0 0-.46-.52c-16.27-.1-30.69-1.47-44.4 5.57a.23.22-1.6 0 1-.31-.29q1.69-3.81 4.69-7.94c3.7-5.09 8.9-11.81 13.43-16.77q1.57-1.72 4.33-1.93 11.18-.86 24.57-.47a.63.63 0 0 0 .65-.55l4.52-39.53a.46.46 0 0 0-.73-.42c-25.09 18.98-47.26 43.18-63.17 70.32-6.94 11.82-11.82 24.21-12.53 37.9q-.25 4.93.76 9.55a.3.3 0 0 1-.51.27c-11.35-11.56-16.49-28.27-12.61-44.11q3.79-15.46 12.9-28.6a.45.45 0 0 0-.35-.71c-9.7-.38-18.17-2.15-25.96-7.95q-6.81-5.07-9.27-13.23a.27.27 0 0 1 .41-.31q3.9 2.54 9.07 3.36 19.85 3.14 39.49-.02a.29.29 0 0 0 .03-.56q-2.11-.56-3.75-.78c-15.5-2.16-24.67-2.82-36.82-7.86-9.77-4.05-16.17-11.06-15.65-22.28a.31.31 0 0 1 .49-.23c10.1 7.44 25.73 10.03 37.64 9.96q1.28 0 36.69.13Z"/>
  <path transform="translate(102.053658 -8.341462) scale(1.097561)" d="M-0.96 40 l5.64 -32 l6 0 c6 0 5.24 4.4 3.32 15.16 c-2.16 12.4 -2.96 16.84 -8.96 16.84 l-6 0 z M3.76 36 l2 0 c2.24 0 2.52 -1.68 4.48 -12.84 c1.76 -10 2.12 -11.96 -0.12 -11.96 l-2 0 z M17.84 40 l1.24 -32 l4.2 0 l-1.76 23.6 l0.4 0 l6.56 -23.6 l4.2 0 l-10.04 32 l-4.8 0 z M29.84 40 l2.96 -16.8 c1.96 -11.16 2.76 -15.56 8.76 -15.56 s5.2 4.4 3.24 15.56 l-2.96 16.8 l-4 0 l1.64 -9.2 l-4 0 l-1.64 9.2 l-4 0 z M36.04 27.6 l4 0 l0.76 -4.4 c1.84 -10.4 2.16 -12.36 0.16 -12.36 s-2.32 1.96 -4.16 12.36 z M45.84 40 l5.64 -32 l3.6 0 l1.8 19.6 l0 -0.4 l3.4 -19.2 l4 0 l-5.64 32 l-3.6 0 l-2.12 -17.6 l-0.04 0.4 l-3.04 17.2 l-4 0 z M65.2 23.16 c1.96 -11.16 2.76 -15.56 8.36 -15.56 c4.12 0 4.8 2.52 4 8.56 l-3.72 0 c0.6 -4.36 0.36 -5.36 -0.84 -5.36 c-1.84 0 -2.2 1.96 -4.04 12.36 c-2.04 11.56 -2.32 13.24 -0.48 13.24 c1.32 0 1.88 -1 2.88 -6.16 l3.76 0 c-1.56 7.4 -3.04 10.16 -7.36 10.16 c-5.6 0 -4.8 -4.44 -2.56 -17.24 z M76.2 40 l5.64 -32 l9.2 0 l-0.56 3.2 l-5.2 0 l-1.84 10.4 l4.4 0 l-0.56 3.2 l-4.4 0 l-1.96 11.2 l5.2 0 l-0.72 4 l-9.2 0 z"/>
</svg>
